HIERARCHY
ROOT hip
{
OFFSET 0 95.47 0.19
CHANNELS 6 Xposition Yposition Zposition Zrotation Xrotation Yrotation
JOINT abdomen
{
OFFSET 0 7.23 0
CHANNELS 6 Xposition Yposition Zposition Zrotation Xrotation Yrotation
JOINT chest
{
OFFSET 0 16.54 0
CHANNELS 6 Xposition Yposition Zposition Zrotation Xrotation Yrotation
JOINT neck
{
OFFSET 0 34.21 0
CHANNELS 6 Xposition Yposition Zposition Zrotation Xrotation Yrotation
JOINT head
{
OFFSET 0 6.29 0
CHANNELS 6 Xposition Yposition Zposition Zrotation Xrotation Yrotation
End Site
{
OFFSET 0 21.21 0
}
}
}
JOINT lCollar
{
OFFSET 4.06 26.61 -1.12
CHANNELS 6 Xposition Yposition Zposition Zrotation Xrotation Yrotation
JOINT lShldr
{
OFFSET 14.17 0 0
CHANNELS 6 Xposition Yposition Zposition Zrotation Xrotation Yrotation
JOINT lForeArm
{
OFFSET 26.12 0 0
CHANNELS 6 Xposition Yposition Zposition Zrotation Xrotation Yrotation
JOINT lHand
{
OFFSET 27.71 0 0
CHANNELS 6 Xposition Yposition Zposition Zrotation Xrotation Yrotation
JOINT lThumb1
{
OFFSET 2.29 -0.46 1.83
CHANNELS 6 Xposition Yposition Zposition Zrotation Xrotation Yrotation
JOINT lThumb2
{
OFFSET 5.29 0 0
CHANNELS 6 Xposition Yposition Zposition Zrotation Xrotation Yrotation
JOINT lThumb3
{
OFFSET 3.01 0 0
CHANNELS 6 Xposition Yposition Zposition Zrotation Xrotation Yrotation
End Site
{
OFFSET 2.62 0 0
}
}
}
}
JOINT lIndex1
{
OFFSET 9.37 0.29 2.59
CHANNELS 6 Xposition Yposition Zposition Zrotation Xrotation Yrotation
JOINT lIndex2
{
OFFSET 4.34 0 0
CHANNELS 6 Xposition Yposition Zposition Zrotation Xrotation Yrotation
JOINT lIndex3
{
OFFSET 2.16 0 0
CHANNELS 6 Xposition Yposition Zposition Zrotation Xrotation Yrotation
End Site
{
OFFSET 2.20 0 0
}
}
}
}
JOINT lMid1
{
OFFSET 9.47 0.83 0.29
CHANNELS 6 Xposition Yposition Zposition Zrotation Xrotation Yrotation
JOINT lMid2
{
OFFSET 4.77 0 0
CHANNELS 6 Xposition Yposition Zposition Zrotation Xrotation Yrotation
JOINT lMid3
{
OFFSET 2.87 0 0
CHANNELS 6 Xposition Yposition Zposition Zrotation Xrotation Yrotation
End Site
{
OFFSET 2.09 0 0
}
}
}
}
JOINT lRing1
{
OFFSET 8.65 1.01 -1.70
CHANNELS 6 Xposition Yposition Zposition Zrotation Xrotation Yrotation
JOINT lRing2
{
OFFSET 4.54 0 0
CHANNELS 6 Xposition Yposition Zposition Zrotation Xrotation Yrotation
JOINT lRing3
{
OFFSET 2.50 0 0
CHANNELS 6 Xposition Yposition Zposition Zrotation Xrotation Yrotation
End Site
{
OFFSET 2.20 0 0
}
}
}
}
JOINT lPinky1
{
OFFSET 7.69 0.66 -3.90
CHANNELS 6 Xposition Yposition Zposition Zrotation Xrotation Yrotation
JOINT lPinky2
{
OFFSET 3.21 0 0
CHANNELS 6 Xposition Yposition Zposition Zrotation Xrotation Yrotation
JOINT lPinky3
{
OFFSET 1.92 0 0
CHANNELS 6 Xposition Yposition Zposition Zrotation Xrotation Yrotation
End Site
{
OFFSET 1.78 0 0
}
}
}
}
}
}
}
}
JOINT rCollar
{
OFFSET -4.06 26.61 -1.12
CHANNELS 6 Xposition Yposition Zposition Zrotation Xrotation Yrotation
JOINT rShldr
{
OFFSET -14.17 0 0
CHANNELS 6 Xposition Yposition Zposition Zrotation Xrotation Yrotation
JOINT rForeArm
{
OFFSET -26.12 0 0
CHANNELS 6 Xposition Yposition Zposition Zrotation Xrotation Yrotation
JOINT rHand
{
OFFSET -27.71 0 0
CHANNELS 6 Xposition Yposition Zposition Zrotation Xrotation Yrotation
JOINT rThumb1
{
OFFSET -2.29 -0.46 1.83
CHANNELS 6 Xposition Yposition Zposition Zrotation Xrotation Yrotation
JOINT rThumb2
{
OFFSET -5.29 0 0
CHANNELS 6 Xposition Yposition Zposition Zrotation Xrotation Yrotation
JOINT rThumb3
{
OFFSET -3.01 0 0
CHANNELS 6 Xposition Yposition Zposition Zrotation Xrotation Yrotation
End Site
{
OFFSET -2.62 0 0
}
}
}
}
JOINT rIndex1
{
OFFSET -9.37 0.29 2.59
CHANNELS 6 Xposition Yposition Zposition Zrotation Xrotation Yrotation
JOINT rIndex2
{
OFFSET -4.34 0 0
CHANNELS 6 Xposition Yposition Zposition Zrotation Xrotation Yrotation
JOINT rIndex3
{
OFFSET -2.16 0 0
CHANNELS 6 Xposition Yposition Zposition Zrotation Xrotation Yrotation
End Site
{
OFFSET -2.20 0 0
}
}
}
}
JOINT rMid1
{
OFFSET -9.47 0.83 0.29
CHANNELS 6 Xposition Yposition Zposition Zrotation Xrotation Yrotation
JOINT rMid2
{
OFFSET -4.77 0 0
CHANNELS 6 Xposition Yposition Zposition Zrotation Xrotation Yrotation
JOINT rMid3
{
OFFSET -2.87 0 0
CHANNELS 6 Xposition Yposition Zposition Zrotation Xrotation Yrotation
End Site
{
OFFSET -2.09 0 0
}
}
}
}
JOINT rRing1
{
OFFSET -8.65 1.01 -1.70
CHANNELS 6 Xposition Yposition Zposition Zrotation Xrotation Yrotation
JOINT rRing2
{
OFFSET -4.54 0 0
CHANNELS 6 Xposition Yposition Zposition Zrotation Xrotation Yrotation
JOINT rRing3
{
OFFSET -2.50 0 0
CHANNELS 6 Xposition Yposition Zposition Zrotation Xrotation Yrotation
End Site
{
OFFSET -2.20 0 0
}
}
}
}
JOINT rPinky1
{
OFFSET -7.69 0.66 -3.90
CHANNELS 6 Xposition Yposition Zposition Zrotation Xrotation Yrotation
JOINT rPinky2
{
OFFSET -3.21 0 0
CHANNELS 6 Xposition Yposition Zposition Zrotation Xrotation Yrotation
JOINT rPinky3
{
OFFSET -1.92 0 0
CHANNELS 6 Xposition Yposition Zposition Zrotation Xrotation Yrotation
End Site
{
OFFSET -1.78 0 0
}
}
}
}
}
}
}
}
}
}
JOINT lThigh
{
OFFSET 8.73 -0 0
CHANNELS 6 Xposition Yposition Zposition Zrotation Xrotation Yrotation
JOINT lShin
{
OFFSET 0 -46.66 0
CHANNELS 6 Xposition Yposition Zposition Zrotation Xrotation Yrotation
JOINT lFoot
{
OFFSET 0 -40.14 0
CHANNELS 6 Xposition Yposition Zposition Zrotation Xrotation Yrotation
JOINT lToes
{
OFFSET 0 -8.88 14.22
CHANNELS 6 Xposition Yposition Zposition Zrotation Xrotation Yrotation
End Site
{
OFFSET 0 0 6.29
}
}
}
}
}
JOINT rThigh
{
OFFSET -8.73 0 -0
CHANNELS 6 Xposition Yposition Zposition Zrotation Xrotation Yrotation
JOINT rShin
{
OFFSET 0 -46.66 0
CHANNELS 6 Xposition Yposition Zposition Zrotation Xrotation Yrotation
JOINT rFoot
{
OFFSET 0 -40.14 0
CHANNELS 6 Xposition Yposition Zposition Zrotation Xrotation Yrotation
JOINT rToes
{
OFFSET 0 -8.88 14.22
CHANNELS 6 Xposition Yposition Zposition Zrotation Xrotation Yrotation
End Site
{
OFFSET 0 0 6.29
}
}
}
}
}
}
MOTION
Frames: 4
Frame Time: 0.03
0 95.47 0.19 -0.31 -3.49 3.24 0 7.23 0 1.51 -0.16 0.04 0 16.54 0 0.53 1.53 0.28 0 34.21 0 0.28 30.19 -0.49 0 6.29 0 -2.30 -24.43 -5.08 4.06 26.61 -1.12 -12.70 -3.58 2.13 14.17 0 0 -69.91 16.73 6.27 26.12 0 0 -0.12 0 -8.28 27.71 0 0 -0.51 6.20 -2.39 2.29 -0.46 1.83 66.01 60.33 -80.11 5.29 0 0 -27.23 6.18 -0.66 3.01 0 0 38.32 5.59 14.90 9.37 0.29 2.59 -23.59 -2.90 2.12 4.34 0 0 -28.69 -1.18 5.72 2.16 0 0 -18.51 -0.59 3.25 9.47 0.83 0.29 -31.58 -6.61 7.23 4.77 0 0 -30.22 -1.93 7.50 2.87 0 0 -16.02 -0.46 5.49 8.65 1.01 -1.70 -33.40 -0.06 11.32 4.54 0 0 -40.90 -1.93 5.17 2.50 0 0 -8.94 -0.04 2.15 7.69 0.66 -3.90 -28.85 -11.07 8.28 3.21 0 0 -26.88 -2.16 9.04 1.92 0 0 -14.32 -0.56 6.46 -4.06 26.61 -1.12 11.48 -4.09 -5.69 -14.17 0 0 68.27 13.77 -2.81 -26.12 0 0 0.22 0.03 15.45 -27.71 0 0 1.47 -4.01 4.14 -2.29 -0.46 1.83 -56.68 54.33 75.02 -5.29 0 0 32.38 4.16 -9.82 -3.01 0 0 -31.43 10.49 -5.72 -9.37 0.29 2.59 17.15 -2.23 -2.07 -4.34 0 0 40.35 -2.27 -6.92 -2.16 0 0 20.43 -0.64 -3.23 -9.47 0.83 0.29 29.10 -6.06 -6.63 -4.77 0 0 37.01 -2.66 -8.21 -2.87 0 0 10.29 -0.11 -3.74 -8.65 1.01 -1.70 35.77 -0.02 -10.32 -4.54 0 0 33.64 -1.12 -3.70 -2.50 0 0 10.29 -0.06 -1.98 -7.69 0.66 -3.90 37.82 -11.68 -6.67 -3.21 0 0 36.37 -3.65 -11.09 -1.92 0 0 20.41 -1.11 -7.92 8.73 -0 0 2.17 -23.08 12.18 0 -46.66 0 12.43 58.88 -4.18 0 -40.14 0 -3.15 -6.26 7.84 0 -8.88 14.22 0 0 0 -8.73 0 -0 1.21 -3.30 -18.02 0 -46.66 0 0.16 21.32 -2.37 0 -40.14 0 -3.10 -14.85 -8.85 0 -8.88 14.22 0 0 0 
0.07 95.58 0.04 0.66 -2.54 2.07 0 7.23 0 0.85 -0.31 0.79 0 16.54 0 -0.15 1.23 1.60 0 34.21 0 0.29 30.15 -0.56 0 6.29 0 -2.46 -24.87 -5.51 4.06 26.61 -1.12 -12.65 -3.67 2.76 14.17 0 0 -71.48 16.19 10.28 26.12 0 0 -0.11 0 -7.98 27.71 0 0 -1.50 9.59 -1.09 2.29 -0.46 1.83 66.01 60.33 -80.11 5.29 0 0 -27.37 6.13 -0.68 3.01 0 0 38.77 5.87 15.24 9.37 0.29 2.59 -25.09 -2.98 2.41 4.34 0 0 -29.82 -1.30 5.93 2.16 0 0 -19.48 -0.65 3.44 9.47 0.83 0.29 -32.68 -6.74 7.33 4.77 0 0 -31.22 -2.07 7.72 2.87 0 0 -17.11 -0.54 5.76 8.65 1.01 -1.70 -34.61 -0.21 11.48 4.54 0 0 -41.80 -2.01 5.27 2.50 0 0 -9.93 -0.06 2.29 7.69 0.66 -3.90 -29.95 -11.22 8.42 3.21 0 0 -27.58 -2.27 9.26 1.92 0 0 -15.23 -0.64 6.77 -4.06 26.61 -1.12 11.25 -4.06 -5.43 -14.17 0 0 67.13 16.02 0.52 -26.12 0 0 0.27 0.04 18.81 -27.71 0 0 2.01 -6.40 6.40 -2.29 -0.46 1.83 -56.68 54.33 75.02 -5.29 0 0 32.43 4.15 -9.81 -3.01 0 0 -31.70 10.72 -5.82 -9.37 0.29 2.59 17.03 -2.22 -1.93 -4.34 0 0 40.45 -2.28 -6.94 -2.16 0 0 20.45 -0.64 -3.24 -9.47 0.83 0.29 29.17 -6.07 -6.43 -4.77 0 0 37.19 -2.68 -8.24 -2.87 0 0 10.37 -0.11 -3.76 -8.65 1.01 -1.70 35.87 -0.03 -10.19 -4.54 0 0 33.83 -1.13 -3.72 -2.50 0 0 10.38 -0.06 -1.99 -7.69 0.66 -3.90 37.92 -11.69 -6.49 -3.21 0 0 36.39 -3.65 -11.10 -1.92 0 0 20.53 -1.13 -7.96 8.73 -0 0 0.73 -26.67 12.21 0 -46.66 0 7.40 49.76 2.06 0 -40.14 0 -3.13 -6.64 7.82 0 -8.88 14.22 0 0 -0 -8.73 0 -0 0.39 -0.87 -18.32 0 -46.66 0 -0.06 21.00 -0.97 0 -40.14 0 -3.80 -17.11 -9.09 0 -8.88 14.22 0 0 -0 
0.21 95.37 -0.17 1.44 -1.74 0.87 0 7.23 0 0.25 -0.40 1.39 0 16.54 0 -0.56 1.05 2.71 0 34.21 0 0.26 30.07 -0.59 0 6.29 0 -2.71 -25.40 -5.60 4.06 26.61 -1.12 -12.68 -3.76 3.46 14.17 0 0 -72.74 14.80 14.32 26.12 0 0 -0.11 0 -7.64 27.71 0 0 -1.71 12.33 -0.51 2.29 -0.46 1.83 66.01 60.33 -80.11 5.29 0 0 -27.53 6.07 -0.69 3.01 0 0 39.16 6.13 15.51 9.37 0.29 2.59 -26.61 -3.06 2.73 4.34 0 0 -30.93 -1.42 6.13 2.16 0 0 -20.58 -0.73 3.65 9.47 0.83 0.29 -33.81 -6.88 7.42 4.77 0 0 -32.23 -2.21 7.95 2.87 0 0 -18.20 -0.63 6.03 8.65 1.01 -1.70 -35.76 -0.35 11.68 4.54 0 0 -42.64 -2.09 5.35 2.50 0 0 -10.97 -0.08 2.43 7.69 0.66 -3.90 -31.03 -11.37 8.57 3.21 0 0 -28.31 -2.39 9.49 1.92 0 0 -16.14 -0.72 7.07 -4.06 26.61 -1.12 11.03 -4.03 -5.08 -14.17 0 0 65.64 18.12 3.74 -26.12 0 0 0.32 0.06 22.18 -27.71 0 0 1.89 -7.41 8.44 -2.29 -0.46 1.83 -56.68 54.33 75.02 -5.29 0 0 32.89 4.09 -9.73 -3.01 0 0 -32.19 11.08 -5.93 -9.37 0.29 2.59 16.95 -2.20 -1.81 -4.34 0 0 40.74 -2.31 -6.98 -2.16 0 0 20.72 -0.66 -3.28 -9.47 0.83 0.29 29.51 -6.11 -6.26 -4.77 0 0 37.45 -2.72 -8.29 -2.87 0 0 10.67 -0.13 -3.83 -8.65 1.01 -1.70 36.09 -0.06 -9.97 -4.54 0 0 34.21 -1.15 -3.76 -2.50 0 0 10.62 -0.06 -2.01 -7.69 0.66 -3.90 38.32 -11.73 -6.32 -3.21 0 0 36.58 -3.69 -11.15 -1.92 0 0 20.78 -1.15 -8.04 8.73 -0 0 -0.09 -28.51 12.47 0 -46.66 0 3.49 37.83 8.34 0 -40.14 0 -2.48 -6.15 7.87 0 -8.88 14.22 0 0 0 -8.73 0 -0 -0.31 1.70 -18.61 0 -46.66 0 -0.20 20.63 0.27 0 -40.14 0 -5.04 -19.84 -9.53 0 -8.88 14.22 0 0 0 
0.34 94.92 0.09 1.73 -1.17 0.23 0 7.23 0 -0.14 -0.44 1.73 0 16.54 0 -0.52 0.95 3.42 0 34.21 0 0.26 29.98 -0.64 0 6.29 0 -2.91 -25.77 -5.88 4.06 26.61 -1.12 -12.89 -3.81 3.92 14.17 0 0 -73.52 13.14 18.01 26.12 0 0 -0.10 0 -7.10 27.71 0 0 -1.65 13.45 0 2.29 -0.46 1.83 66.01 60.33 -80.11 5.29 0 0 -27.46 6.10 -0.68 3.01 0 0 38.70 5.86 15.18 9.37 0.29 2.59 -27.16 -3.04 2.99 4.34 0 0 -32.01 -1.54 6.32 2.16 0 0 -21.90 -0.83 3.90 9.47 0.83 0.29 -34.44 -6.96 7.63 4.77 0 0 -33.26 -2.35 8.18 2.87 0 0 -19.19 -0.71 6.27 8.65 1.01 -1.70 -36.37 -0.43 11.96 4.54 0 0 -43.34 -2.15 5.42 2.50 0 0 -11.93 -0.11 2.56 7.69 0.66 -3.90 -31.53 -11.47 8.74 3.21 0 0 -29.12 -2.53 9.74 1.92 0 0 -16.93 -0.80 7.34 -4.06 26.61 -1.12 10.94 -3.99 -4.75 -14.17 0 0 63.89 19.60 6.70 -26.12 0 0 0.36 0.08 25.20 -27.71 0 0 1.45 -7.62 9.80 -2.29 -0.46 1.83 -56.68 54.33 75.02 -5.29 0 0 33.17 4.05 -9.68 -3.01 0 0 -32.69 11.50 -6.07 -9.37 0.29 2.59 17.29 -2.21 -1.80 -4.34 0 0 41.18 -2.37 -7.04 -2.16 0 0 21.17 -0.69 -3.36 -9.47 0.83 0.29 29.94 -6.15 -6.26 -4.77 0 0 37.76 -2.77 -8.35 -2.87 0 0 11.09 -0.14 -3.93 -8.65 1.01 -1.70 36.42 -0.10 -9.92 -4.54 0 0 34.68 -1.18 -3.80 -2.50 0 0 11.04 -0.07 -2.06 -7.69 0.66 -3.90 38.63 -11.77 -6.25 -3.21 0 0 36.90 -3.76 -11.23 -1.92 0 0 21.17 -1.20 -8.15 8.73 -0 0 -0.88 -27.74 12.28 0 -46.66 0 0.99 22.18 9.67 0 -40.14 0 -0.84 -4.93 10.92 0 -8.88 14.22 0 0 0 -8.73 0 -0 -0.67 5.57 -19.05 0 -46.66 0 0.19 18.68 1.17 0 -40.14 0 -5.19 -21.32 -9.71 0 -8.88 14.22 0 0 -0 
